<?xml version="1.0" standalone="no"?>
<!DOCTYPE svg PUBLIC "-//W3C//DTD SVG 20010904//EN"
 "http://www.w3.org/TR/2001/REC-SVG-20010904/DTD/svg10.dtd">
<svg version="1.0" xmlns="http://www.w3.org/2000/svg"
 width="1024.000000pt" height="1024.000000pt" viewBox="0 0 1024.000000 1024.000000"
 preserveAspectRatio="xMidYMid meet">

<g transform="translate(0.000000,1024.000000) scale(0.100000,-0.100000)"
fill="#000000" stroke="none">
<path d="M4553 9070 c-12 -5 -28 -19 -36 -32 -8 -13 -36 -126 -62 -253 -26
-126 -53 -242 -61 -257 -8 -16 -28 -31 -51 -39 -75 -24 -250 -97 -380 -158
-98 -46 -138 -61 -155 -55 -13 4 -102 57 -198 119 -215 138 -209 135 -261 135
-43 0 -44 -1 -317 -272 -151 -150 -287 -291 -303 -312 -48 -64 -53 -47 130
-381 41 -76 71 -142 71 -158 0 -16 -32 -96 -70 -178 -39 -82 -91 -210 -117
-285 -46 -136 -46 -137 -87 -154 -23 -10 -131 -40 -241 -66 -240 -58 -240 -57
-250 -170 -11 -115 4 -851 18 -881 16 -37 50 -50 280 -109 160 -41 217 -60
233 -77 12 -12 43 -75 68 -141 26 -65 83 -189 128 -276 70 -136 80 -162 74
-191 -3 -19 -49 -109 -102 -199 -53 -91 -103 -181 -111 -200 -30 -69 -18 -84
287 -381 154 -150 291 -279 306 -287 49 -25 95 -10 206 69 206 145 255 178
280 184 19 5 47 -4 104 -33 104 -52 268 -122 379 -162 95 -34 130 -58 138 -93
47 -226 92 -418 103 -439 30 -57 35 -58 491 -58 230 0 436 5 458 10 67 15 77
36 119 246 20 104 44 213 52 242 16 58 22 62 169 118 39 14 145 62 237 106
125 60 173 78 190 73 13 -4 109 -63 213 -130 105 -68 203 -127 218 -130 15 -4
39 -4 55 0 37 9 598 568 612 610 15 45 3 74 -97 235 -111 179 -133 221 -133
258 0 16 31 94 69 173 38 79 90 202 116 274 26 71 51 137 56 146 12 23 38 32
259 86 157 38 201 53 225 74 l30 27 3 446 c3 488 0 515 -48 545 -17 10 -105
35 -197 55 -228 51 -267 63 -285 83 -9 10 -35 72 -58 138 -22 66 -78 193 -122
282 -67 136 -79 168 -74 194 3 18 44 98 90 178 46 80 93 165 105 188 20 41 27
105 15 137 -3 8 -140 146 -304 305 -254 246 -305 292 -341 301 -59 16 -88 3
-251 -118 -168 -125 -196 -142 -230 -142 -15 0 -78 24 -140 54 -113 53 -216
96 -337 138 -38 14 -71 33 -83 48 -10 15 -38 115 -68 245 -56 245 -68 281
-106 295 -32 13 -880 12 -911 0z m560 -182 c2 -7 2 -185 -1 -395 l-5 -381 69
-7 c370 -34 733 -171 1003 -379 262 -202 460 -438 595 -711 99 -199 169 -424
191 -615 3 -30 8 -72 11 -92 l6 -38 371 -2 372 -3 3 -91 3 -91 -218 -6 c-120
-4 -288 -7 -373 -7 l-156 0 -13 -122 c-23 -222 -104 -490 -203 -678 -102 -191
-194 -316 -353 -480 l-92 -95 93 -62 94 -62 0 74 c0 89 -6 89 130 -2 l95 -63
10 147 10 148 80 3 c44 1 85 -1 91 -5 5 -5 23 -138 38 -298 16 -159 31 -311
34 -337 l5 -48 -340 0 -340 0 -7 77 c-3 42 -6 154 -6 250 l0 173 -62 -49
c-165 -128 -409 -259 -609 -325 -116 -38 -294 -75 -408 -85 l-73 -6 -2 -385
-1 -385 -92 -3 -93 -3 -2 388 -3 388 -95 7 c-495 38 -990 294 -1319 682 -248
292 -419 694 -449 1056 l-7 85 -385 5 -385 5 0 90 0 90 385 5 385 5 7 95 c33
460 282 953 643 1272 229 202 521 358 805 429 89 23 319 59 372 59 5 0 8 178
8 395 l0 395 89 0 c63 0 91 -4 94 -12z m-1676 -694 c14 -4 26 -19 33 -39 17
-53 34 -61 80 -40 37 17 41 17 65 1 13 -9 32 -28 42 -42 16 -24 16 -28 -1 -59
-23 -42 -19 -55 30 -80 37 -19 39 -22 39 -70 0 -49 -1 -50 -42 -70 -48 -22
-50 -29 -27 -77 21 -45 6 -84 -41 -104 -32 -13 -39 -13 -70 2 -44 20 -55 16
-69 -26 -11 -34 -12 -35 -72 -38 -57 -3 -61 -1 -72 23 -7 14 -12 32 -12 40 0
17 -45 21 -55 5 -9 -15 -58 -12 -83 6 -35 24 -45 59 -27 94 23 44 19 58 -22
77 -37 17 -38 20 -41 75 -3 57 -3 57 37 82 l40 25 -16 41 c-16 39 -15 42 4 68
30 40 67 50 103 29 28 -17 30 -17 50 3 11 11 20 29 20 40 0 33 50 49 107 34z
m2945 -115 l70 -41 123 7 c87 5 139 4 175 -5 51 -12 53 -12 124 26 41 21 79
35 88 32 18 -7 144 -250 150 -288 2 -21 -4 -27 -42 -42 -28 -11 -59 -16 -83
-13 -33 5 -39 2 -49 -20 -6 -14 -18 -25 -27 -25 -9 0 -52 36 -96 81 -74 75
-136 119 -167 119 -7 0 -44 -18 -82 -40 -37 -22 -76 -40 -87 -40 -21 0 -49 36
-49 63 0 19 45 69 90 99 l25 17 -45 -2 c-25 -1 -54 2 -66 6 -19 7 -28 -5 -82
-105 -44 -80 -58 -115 -49 -120 7 -4 35 -8 64 -8 66 0 97 -12 149 -58 72 -64
122 -102 135 -102 6 0 27 -9 46 -21 18 -12 41 -18 49 -15 13 5 6 17 -30 57
-25 28 -46 56 -46 62 0 16 52 67 68 67 8 0 37 -21 64 -46 37 -35 55 -45 76
-42 21 2 28 -2 30 -18 3 -23 -22 -46 -93 -82 -22 -11 -62 -32 -90 -47 -43 -23
-58 -26 -105 -20 -30 3 -61 12 -70 19 -8 8 -57 35 -108 61 -104 53 -122 73
-98 110 21 32 20 35 -6 35 -12 0 -29 7 -39 16 -14 13 -21 13 -37 3 -18 -11
-27 -9 -69 17 -42 26 -48 35 -47 62 2 38 133 282 152 282 7 0 45 -18 84 -41z
m-3250 -3546 l3 -298 320 -1 c420 -1 415 -1 415 -19 0 -13 -49 -15 -385 -15
l-384 0 -3 288 c-3 317 -2 342 18 342 11 0 14 -53 16 -297z m590 162 c4 -5 8
-16 8 -22 0 -12 -181 -169 -207 -180 -7 -3 -38 18 -70 46 -31 28 -61 51 -66
51 -5 0 -47 -30 -94 -67 l-86 -66 -18 24 c-10 13 -19 29 -19 36 0 14 209 193
226 193 7 0 40 -23 74 -51 l61 -51 70 67 c70 67 70 67 92 49 12 -11 25 -23 29
-29z m68 -270 l0 -155 -64 0 c-35 0 -70 -2 -78 -5 -29 -11 -37 11 -39 105 l-2
95 83 58 c46 31 88 57 92 57 4 0 8 -70 8 -155z m-251 25 l31 0 0 -89 c0 -102
1 -101 -90 -101 -40 0 -61 5 -71 16 -18 22 -26 223 -9 234 8 5 31 -5 60 -26
30 -21 59 -34 79 -34z m-196 -177 c-9 -7 -45 -13 -80 -13 -71 0 -81 9 -81 72
0 46 6 54 98 117 l75 52 3 -108 c2 -93 0 -110 -15 -120z"/>
<path d="M5110 7980 c0 -11 5 -20 10 -20 6 0 10 5 10 10 0 6 8 10 18 11 14 0
14 2 -3 9 -30 13 -35 12 -35 -10z"/>
<path d="M4880 7983 c8 -3 21 -10 28 -16 8 -7 12 -5 12 7 0 11 -8 16 -27 15
-16 0 -22 -3 -13 -6z"/>
<path d="M4895 7560 c-19 -8 -19 -9 3 -9 12 -1 22 4 22 9 0 6 -1 10 -2 9 -2 0
-12 -4 -23 -9z"/>
<path d="M5110 7560 c0 -5 21 -10 47 -10 55 0 54 5 -4 14 -27 4 -43 2 -43 -4z"/>
<path d="M5228 7543 c6 -2 18 -2 25 0 6 3 1 5 -13 5 -14 0 -19 -2 -12 -5z"/>
<path d="M5288 7533 c6 -2 18 -2 25 0 6 3 1 5 -13 5 -14 0 -19 -2 -12 -5z"/>
<path d="M4728 7523 c7 -3 16 -2 19 1 4 3 -2 6 -13 5 -11 0 -14 -3 -6 -6z"/>
<path d="M4688 7513 c7 -3 16 -2 19 1 4 3 -2 6 -13 5 -11 0 -14 -3 -6 -6z"/>
<path d="M4585 7485 c-39 -17 -21 -18 25 0 19 7 28 14 20 14 -8 0 -28 -6 -45
-14z"/>
<path d="M5535 7462 c60 -24 130 -55 158 -69 4 -2 7 -2 7 1 0 11 -200 96 -223
96 -7 -1 20 -13 58 -28z"/>
<path d="M4500 7455 c-33 -19 -21 -19 21 0 19 8 27 14 19 14 -8 0 -26 -6 -40
-14z"/>
<path d="M4368 7394 c-39 -21 -35 -28 5 -8 37 19 44 24 31 24 -5 -1 -21 -8
-36 -16z"/>
<path d="M4304 7354 c-18 -14 -18 -15 4 -4 12 6 22 13 22 15 0 8 -5 6 -26 -11z"/>
<path d="M4213 7294 l-28 -25 33 22 c17 13 32 24 32 26 0 8 -11 1 -37 -23z"/>
<path d="M5920 7244 c25 -21 74 -66 110 -98 l65 -60 -64 66 c-36 37 -85 81
-110 99 l-46 31 45 -38z"/>
<path d="M4154 7248 l-19 -23 23 19 c21 18 27 26 19 26 -2 0 -12 -10 -23 -22z"/>
<path d="M4048 7157 c-77 -73 -158 -168 -178 -209 -7 -15 -3 -13 12 7 13 16
35 43 49 59 l26 30 8 -872 7 -872 353 0 c315 0 360 2 427 19 104 27 172 63
235 127 116 115 160 313 113 499 -25 97 -58 155 -127 222 l-54 53 45 54 c93
115 125 251 95 412 -31 170 -148 291 -330 341 -56 16 -110 18 -416 18 -194 0
-353 2 -353 5 0 2 39 44 87 92 48 49 85 88 83 88 -3 0 -40 -33 -82 -73z m563
-454 c56 -25 90 -76 97 -143 6 -63 -12 -112 -53 -149 -47 -41 -91 -51 -222
-51 l-113 0 0 186 0 186 123 -4 c95 -3 132 -9 168 -25z m-12 -663 c47 -13 93
-47 122 -88 19 -28 25 -51 28 -114 4 -92 -7 -126 -55 -168 -47 -41 -90 -50
-241 -50 l-133 0 0 215 0 215 123 0 c67 0 137 -4 156 -10z"/>
<path d="M6120 7046 c0 -2 8 -10 18 -17 15 -13 16 -12 3 4 -13 16 -21 21 -21
13z"/>
<path d="M6186 6960 c46 -68 61 -84 41 -45 -9 17 -30 46 -47 65 -28 32 -28 30
6 -20z"/>
<path d="M3820 6870 c-6 -11 -8 -20 -6 -20 3 0 10 9 16 20 6 11 8 20 6 20 -3
0 -10 -9 -16 -20z"/>
<path d="M3775 6790 c-14 -27 -23 -50 -20 -50 2 0 16 23 30 50 14 28 23 50 20
50 -2 0 -16 -22 -30 -50z"/>
<path d="M6297 6775 c9 -19 18 -33 21 -31 4 5 -26 66 -33 66 -3 0 3 -16 12
-35z"/>
<path d="M3735 6709 c-4 -6 -5 -12 -2 -15 2 -3 7 2 10 11 7 17 1 20 -8 4z"/>
<path d="M5871 6655 c15 -16 31 -39 37 -50 6 -11 12 -14 12 -7 0 7 -17 30 -37
50 -21 21 -26 24 -12 7z"/>
<path d="M6340 6685 c0 -5 5 -17 10 -25 5 -8 10 -10 10 -5 0 6 -5 17 -10 25
-5 8 -10 11 -10 5z"/>
<path d="M6366 6620 c3 -14 11 -32 16 -40 6 -10 7 -7 2 10 -3 14 -11 32 -16
40 -6 10 -7 7 -2 -10z"/>
<path d="M6845 6280 c-3 -5 -1 -10 4 -10 6 0 11 5 11 10 0 6 -2 10 -4 10 -3 0
-8 -4 -11 -10z"/>
<path d="M3210 6270 c0 -5 5 -10 11 -10 5 0 7 5 4 10 -3 6 -8 10 -11 10 -2 0
-4 -4 -4 -10z"/>
<path d="M6446 6054 c-6 -15 -4 -15 11 -3 10 7 20 15 22 16 2 2 -3 3 -11 3 -9
0 -19 -7 -22 -16z"/>
<path d="M6855 6060 c3 -5 8 -10 11 -10 2 0 4 5 4 10 0 6 -5 10 -11 10 -5 0
-7 -4 -4 -10z"/>
<path d="M3210 6033 c0 -11 3 -14 8 -7 4 6 14 14 22 17 10 4 8 6 -7 6 -16 1
-23 -5 -23 -16z"/>
<path d="M6780 4820 c0 -19 5 -21 63 -18 47 2 62 7 62 18 0 11 -15 16 -62 18
-58 3 -63 1 -63 -18z"/>
<path d="M6799 4763 c-13 -3 -17 -29 -22 -161 -4 -86 -7 -208 -7 -269 l0 -113
95 0 c84 0 95 2 95 18 0 38 -51 516 -56 524 -5 8 -75 9 -105 1z"/>
<path d="M6550 4600 c0 -90 -16 -93 -118 -20 l-82 59 0 -209 0 -210 110 0 110
0 0 48 c0 67 7 74 71 70 l54 -3 3 -57 c2 -43 7 -58 17 -58 11 0 15 13 15 53 0
30 3 101 6 158 l6 104 -96 63 -96 62 0 -60z m-30 -160 l0 -61 -67 3 -68 3 -3
44 c-5 67 -1 71 73 71 l65 0 0 -60z m178 3 l-3 -58 -61 -3 c-73 -3 -82 5 -76
71 l4 47 70 0 69 0 -3 -57z"/>
<path d="M6416 4444 c-9 -24 -9 -24 34 -24 33 0 40 3 40 20 0 16 -7 20 -34 20
-22 0 -36 -6 -40 -16z"/>
<path d="M6597 4463 c-4 -3 -7 -15 -7 -25 0 -14 8 -18 35 -18 31 0 35 3 35 25
0 21 -5 25 -28 25 -16 0 -32 -3 -35 -7z"/>
<path d="M6610 4264 c0 -44 1 -45 28 -42 15 2 26 6 25 11 -2 4 -3 23 -3 42 0
31 -3 35 -25 35 -23 0 -25 -4 -25 -46z"/>
<path d="M3367 8153 c-2 -4 -7 -19 -10 -33 -4 -17 -17 -30 -40 -38 -44 -16
-57 -15 -79 5 -18 16 -20 16 -40 -5 -20 -20 -21 -24 -8 -63 12 -35 12 -45 -1
-67 -8 -14 -25 -29 -39 -32 -20 -5 -26 -13 -28 -42 -3 -32 0 -37 27 -46 49
-17 78 -95 46 -122 -20 -17 -19 -33 5 -55 19 -18 21 -17 54 0 46 25 92 7 104
-39 7 -27 13 -31 45 -34 35 -3 38 -1 43 28 11 51 75 80 104 45 17 -21 44 -19
65 5 17 19 17 21 0 53 -16 30 -16 35 -2 70 12 28 23 39 46 43 53 11 52 70 -1
81 -23 4 -34 15 -45 42 -14 32 -14 39 1 66 29 53 -10 93 -59 61 -22 -15 -28
-15 -65 0 -31 12 -42 23 -48 48 -7 25 -14 32 -39 34 -17 2 -33 -1 -36 -5z m99
-132 c74 -34 115 -114 94 -190 -38 -143 -212 -167 -298 -41 -20 29 -23 44 -20
93 5 69 27 103 88 135 53 27 82 27 136 3z"/>
<path d="M3321 7975 c-62 -53 -63 -141 -2 -199 107 -102 271 41 188 165 -28
42 -60 59 -114 59 -30 0 -50 -7 -72 -25z"/>
<path d="M6267 8018 c-19 -35 -49 -91 -66 -125 l-31 -62 27 -20 c33 -27 38
-26 61 7 27 39 122 210 122 220 0 7 -62 42 -74 42 -3 0 -20 -28 -39 -62z m-22
-188 c0 -19 -35 -26 -46 -9 -4 7 -5 17 -2 22 8 14 48 3 48 -13z"/>
<path d="M6913 8049 c-18 -12 -33 -23 -33 -25 0 -2 27 -58 60 -124 60 -119 60
-119 87 -109 16 5 34 12 41 14 8 3 -8 45 -53 135 -36 71 -66 130 -68 130 -1 0
-17 -10 -34 -21z"/>
<path d="M6570 7984 c-75 -50 -100 -74 -100 -95 0 -30 19 -32 53 -6 115 87
175 77 302 -52 38 -39 75 -71 81 -71 6 0 19 9 28 19 17 19 15 24 -36 122 l-53
103 -55 2 c-30 0 -80 4 -110 8 -52 7 -58 6 -110 -30z"/>
<path d="M6395 7716 c-27 -27 -29 -49 -4 -54 20 -4 55 56 41 70 -7 7 -19 2
-37 -16z"/>
<path d="M6711 7716 c-9 -10 -2 -22 34 -55 48 -44 56 -47 86 -30 18 9 14 14
-40 55 -32 24 -61 44 -64 44 -2 0 -10 -6 -16 -14z"/>
<path d="M6450 7675 c-22 -23 -22 -27 -8 -41 14 -14 17 -12 37 19 11 19 21 37
21 41 0 15 -28 4 -50 -19z"/>
<path d="M6517 7642 c-18 -19 -23 -52 -9 -52 12 0 52 44 52 58 0 18 -25 14
-43 -6z"/>
<path d="M6569 7589 c-9 -17 -8 -23 2 -30 17 -10 39 8 39 32 0 26 -27 24 -41
-2z"/>
<path d="M6647 7574 c-14 -14 -6 -24 19 -24 16 0 24 5 22 13 -5 14 -31 21 -41
11z"/>
<path d="M3597 4624 l-68 -65 -62 56 c-34 30 -66 55 -72 55 -13 0 -198 -161
-192 -167 3 -2 43 25 88 61 46 36 90 66 99 66 8 -1 40 -23 70 -50 39 -35 58
-46 70 -40 29 16 160 131 160 140 0 23 -29 5 -93 -56z"/>
<path d="M3692 4485 l-52 -36 0 -75 0 -75 55 3 55 3 5 108 c3 59 2 107 -3 107
-4 0 -31 -16 -60 -35z"/>
<path d="M3430 4380 l0 -80 55 0 55 0 0 55 c0 46 -3 55 -18 55 -9 0 -34 11
-55 25 l-37 26 0 -81z"/>
<path d="M3273 4403 c-46 -32 -53 -41 -53 -70 0 -33 0 -33 50 -33 59 0 62 5
58 83 l-3 57 -52 -37z"/>
<path d="M2320 2694 c-108 -47 -158 -181 -105 -284 23 -45 67 -80 158 -127
104 -54 131 -86 123 -147 -6 -53 -36 -81 -87 -81 -49 0 -84 34 -95 90 l-6 36
-62 -7 c-33 -4 -63 -8 -65 -10 -9 -8 20 -109 41 -142 33 -53 111 -85 196 -80
81 4 135 29 176 81 26 32 31 49 34 107 2 37 -1 84 -7 103 -17 50 -72 100 -164
148 -45 23 -91 52 -104 65 -41 41 -24 125 29 143 53 19 108 -22 108 -81 0 -28
1 -28 65 -28 64 0 65 0 65 28 0 79 -46 152 -115 183 -49 23 -137 24 -185 3z"/>
<path d="M4132 2699 c-44 -13 -108 -79 -121 -126 -25 -88 -2 -175 58 -226 18
-14 68 -45 113 -68 87 -46 118 -81 118 -135 0 -67 -70 -110 -128 -80 -29 15
-52 58 -52 99 0 15 -5 18 -22 13 -13 -3 -42 -6 -65 -6 -40 0 -43 -2 -43 -26 0
-119 95 -204 227 -204 147 0 246 122 214 264 -16 73 -54 114 -161 171 -109 59
-132 81 -133 128 -1 55 26 87 73 87 47 0 75 -25 85 -76 l6 -34 64 0 c75 0 75
2 50 88 -34 114 -153 168 -283 131z"/>
<path d="M4637 2695 c-77 -27 -127 -103 -127 -193 0 -100 42 -152 187 -230 48
-26 86 -54 96 -71 52 -89 -35 -185 -120 -132 -24 15 -34 30 -40 63 -9 46 -3
44 -93 40 -39 -2 -40 -3 -40 -39 0 -46 29 -110 61 -140 76 -70 236 -70 315 -1
51 45 68 83 68 158 1 114 -36 158 -202 245 -82 43 -108 77 -98 128 9 46 33 67
77 67 46 0 74 -26 84 -76 l6 -34 64 0 c75 0 75 2 50 88 -35 116 -162 172 -288
127z"/>
<path d="M6125 2694 c-56 -21 -102 -69 -126 -133 -19 -51 -20 -73 -17 -256 3
-196 4 -201 31 -252 17 -34 43 -63 69 -80 37 -25 50 -28 129 -28 81 0 90 2
131 30 28 21 53 50 73 90 l30 59 0 195 c0 185 -1 199 -24 249 -52 116 -178
169 -296 126z m143 -126 c35 -38 44 -102 40 -280 -2 -137 -6 -168 -21 -191
-38 -59 -121 -55 -154 6 -26 48 -26 387 -1 434 10 18 26 37 35 42 31 18 78 13
101 -11z"/>
<path d="M8725 2691 c-75 -34 -115 -102 -115 -193 0 -101 44 -154 186 -226 75
-38 114 -81 114 -127 0 -83 -103 -123 -156 -62 -13 16 -24 38 -24 50 0 40 -12
46 -73 40 l-57 -6 0 -34 c0 -109 91 -192 210 -193 77 0 125 16 170 56 45 41
63 86 62 159 -1 104 -37 149 -178 225 -123 66 -147 107 -104 178 17 27 25 32
58 32 45 0 68 -20 83 -74 l10 -36 59 0 60 0 0 38 c0 45 -29 109 -61 139 -58
53 -169 69 -244 34z"/>
<path d="M1130 2325 l0 -377 153 4 c124 3 159 7 190 22 55 27 90 84 95 157 7
88 -4 125 -48 169 -37 37 -38 40 -21 50 54 28 77 159 42 235 -39 85 -90 107
-273 113 l-138 5 0 -378z m249 240 c34 -17 41 -33 41 -86 0 -59 -34 -89 -100
-89 l-50 0 0 95 0 95 40 0 c23 0 54 -7 69 -15z m22 -305 c24 -13 42 -74 35
-115 -10 -50 -47 -75 -112 -75 l-54 0 0 98 c0 54 3 102 8 106 9 9 98 -1 123
-14z"/>
<path d="M1662 2398 c3 -290 4 -305 25 -344 44 -82 115 -119 212 -112 108 8
178 67 200 169 6 29 11 166 11 319 l0 270 -70 0 -70 0 0 -285 c0 -236 -3 -291
-15 -315 -26 -51 -104 -54 -139 -7 -20 27 -21 42 -25 318 l-3 289 -65 0 -64 0
3 -302z"/>
<path d="M2720 2325 l0 -375 65 0 65 0 0 375 0 375 -65 0 -65 0 0 -375z"/>
<path d="M2960 2325 l0 -375 72 0 71 0 -6 232 c-4 127 -4 228 0 225 3 -4 48
-107 98 -230 l91 -222 67 -3 67 -3 0 376 0 375 -65 0 -65 0 -2 -237 -3 -238
-93 238 -94 237 -69 0 -69 0 0 -375z"/>
<path d="M3530 2325 l0 -375 200 0 199 0 6 34 c4 18 5 44 3 57 -3 24 -4 24
-135 27 l-133 3 0 94 0 95 105 0 105 0 0 59 0 58 -96 7 c-52 3 -99 4 -105 1
-5 -4 -9 34 -9 94 l0 101 135 0 136 0 -3 58 -3 57 -202 3 -203 2 0 -375z"/>
<path d="M5210 2326 l0 -376 70 0 70 0 0 130 c0 72 1 130 3 130 126 9 185 22
221 47 108 76 122 277 27 372 -50 50 -96 63 -253 68 l-138 5 0 -376z m282 227
c25 -26 38 -92 27 -140 -12 -56 -39 -76 -109 -81 l-60 -4 0 127 0 127 60 -4
c44 -3 67 -10 82 -25z"/>
<path d="M5740 2325 l0 -375 70 0 70 0 -2 373 -3 372 -67 3 -68 3 0 -376z"/>
<path d="M6540 2325 l0 -375 65 0 65 0 0 226 c0 124 3 223 8 221 4 -3 47 -105
97 -226 l90 -221 67 0 68 0 0 375 0 375 -65 0 -65 0 -2 -236 -3 -237 -79 194
c-43 107 -87 213 -97 237 l-18 42 -65 0 -66 0 0 -375z"/>
<path d="M7120 2325 l0 -375 200 0 200 0 0 60 0 60 -135 0 -136 0 3 96 3 96
103 0 102 1 0 58 0 59 -82 1 c-46 1 -91 2 -101 3 -15 1 -18 13 -21 86 -2 47
-1 91 2 98 3 9 39 12 133 12 l129 0 0 60 0 60 -200 0 -200 0 0 -375z"/>
<path d="M7600 2325 l0 -375 200 0 200 0 0 60 0 60 -130 0 -130 0 0 95 0 94
103 3 102 3 3 57 3 57 -103 3 -103 3 -3 98 -3 97 136 0 136 0 -3 58 -3 57
-202 3 -203 2 0 -375z"/>
<path d="M8080 2326 l0 -376 70 0 70 0 0 140 0 140 38 0 37 0 51 -137 51 -138
73 -3 c87 -4 86 -17 7 175 l-54 130 34 28 c77 61 98 196 45 296 -23 45 -37 59
-86 84 -55 28 -67 30 -197 33 l-139 4 0 -376z m249 243 c38 -14 61 -54 61
-109 0 -79 -31 -109 -112 -110 l-58 0 0 115 0 115 39 0 c21 0 52 -5 70 -11z"/>
<path d="M1500 1790 c0 -20 7 -20 3585 -20 3578 0 3585 0 3585 20 0 20 -7 20
-3585 20 -3578 0 -3585 0 -3585 -20z"/>
<path d="M4740 1575 c0 -30 -2 -55 -5 -55 -2 0 -15 5 -29 11 -75 34 -127 -122
-70 -208 16 -26 71 -32 92 -11 9 9 12 9 12 0 0 -7 9 -12 20 -12 19 0 20 7 20
165 0 158 -1 165 -20 165 -18 0 -20 -7 -20 -55z m-12 -87 c18 -18 16 -133 -3
-148 -21 -17 -47 -9 -63 20 -14 28 -9 105 9 126 14 17 41 18 57 2z"/>
<path d="M5840 1570 l0 -60 -24 15 c-31 20 -73 5 -86 -30 -15 -39 -12 -132 5
-164 16 -32 49 -45 76 -30 10 5 30 7 44 3 l25 -6 0 166 c0 159 -1 166 -20 166
-18 0 -20 -7 -20 -60z m-11 -84 c19 -23 10 -136 -11 -150 -13 -8 -23 -8 -35 0
-21 13 -30 112 -13 144 12 23 42 26 59 6z"/>
<path d="M7250 1623 c-36 -14 -60 -47 -60 -82 0 -49 9 -59 76 -95 67 -36 84
-66 54 -96 -11 -11 -31 -20 -43 -20 -25 0 -57 28 -57 48 0 7 -9 12 -20 12 -48
0 -9 -73 48 -91 55 -16 106 7 122 55 17 53 -2 84 -78 124 -54 29 -62 37 -62
61 0 36 21 53 57 49 19 -2 32 -12 41 -30 15 -32 42 -37 42 -9 0 46 -75 92
-120 74z"/>
<path d="M7981 1621 c-17 -11 -7 -41 13 -41 22 0 30 20 15 36 -9 8 -19 10 -28
5z"/>
<path d="M1680 1460 l0 -160 85 0 c78 0 85 2 85 20 0 18 -7 20 -65 20 l-65 0
0 55 0 55 55 0 c42 0 55 3 55 15 0 12 -13 15 -56 15 l-55 0 3 53 3 52 63 3
c46 2 62 7 62 17 0 12 -17 15 -85 15 l-85 0 0 -160z"/>
<path d="M2330 1600 c0 -13 7 -20 20 -20 13 0 20 7 20 20 0 13 -7 20 -20 20
-13 0 -20 -7 -20 -20z"/>
<path d="M3210 1600 c0 -13 7 -20 20 -20 13 0 20 7 20 20 0 13 -7 20 -20 20
-13 0 -20 -7 -20 -20z"/>
<path d="M4070 1606 c0 -10 13 -16 38 -18 l37 -3 1 -140 c0 -131 2 -140 20
-140 18 0 19 8 19 140 l0 140 38 3 c24 2 37 8 37 18 0 11 -19 14 -95 14 -76 0
-95 -3 -95 -14z"/>
<path d="M5410 1460 c0 -153 1 -160 20 -160 19 0 20 7 20 160 0 153 -1 160
-20 160 -19 0 -20 -7 -20 -160z"/>
<path d="M6359 1593 c-1 -5 0 -18 1 -31 1 -16 -5 -25 -19 -29 -27 -7 -27 -33
-1 -33 19 0 20 -7 20 -90 0 -86 1 -91 24 -102 27 -12 56 -5 56 13 0 6 -9 13
-19 16 -16 4 -20 18 -26 73 -8 76 -3 90 26 90 27 0 24 28 -3 32 -18 2 -24 11
-26 36 -2 20 -9 32 -18 32 -8 0 -14 -3 -15 -7z"/>
<path d="M1970 1531 c-8 -6 -27 -7 -42 -4 l-28 6 0 -117 c0 -109 1 -116 20
-116 17 0 20 8 22 91 2 75 6 94 21 103 12 8 22 8 35 0 14 -9 18 -28 20 -103 2
-83 5 -91 22 -91 19 0 20 7 20 100 0 87 -3 103 -20 120 -21 21 -46 25 -70 11z"/>
<path d="M2152 1533 c-44 -17 -58 -160 -21 -207 22 -28 66 -35 87 -14 9 9 12
6 12 -14 0 -25 -22 -58 -38 -58 -4 0 -18 7 -30 16 -36 25 -60 -5 -24 -32 25
-20 76 -17 105 6 25 20 26 24 29 160 3 128 1 140 -14 140 -10 0 -18 -5 -18
-11 0 -5 -10 -3 -22 5 -23 16 -42 19 -66 9z m62 -39 c12 -5 16 -21 16 -73 0
-69 -10 -91 -42 -91 -24 0 -38 31 -38 85 0 72 19 96 64 79z"/>
<path d="M2336 1533 c-3 -4 -6 -57 -6 -120 0 -106 1 -113 20 -113 19 0 20 7
20 114 0 88 -3 115 -14 119 -8 3 -17 3 -20 0z"/>
<path d="M2492 1524 c-12 -8 -22 -10 -22 -5 0 6 -9 11 -20 11 -19 0 -20 -7
-20 -115 0 -108 1 -115 20 -115 17 0 20 8 22 91 2 75 6 94 21 103 12 8 22 8
35 0 14 -9 18 -28 20 -103 2 -83 5 -91 22 -91 18 0 20 7 20 94 0 79 -3 97 -21
120 -23 30 -45 33 -77 10z"/>
<path d="M2683 1530 c-32 -13 -43 -41 -43 -114 0 -53 4 -70 23 -91 29 -34 89
-37 120 -6 27 26 16 37 -22 21 -38 -15 -70 -5 -82 27 -14 37 -4 43 63 43 l61
0 -6 47 c-8 70 -51 98 -114 73z m71 -46 c14 -36 7 -44 -39 -44 -49 0 -53 5
-29 38 18 25 59 29 68 6z"/>
<path d="M2876 1517 c-43 -43 -45 -140 -5 -192 26 -32 85 -35 120 -6 21 17 22
20 7 26 -9 4 -26 1 -38 -5 -26 -14 -57 -5 -71 21 -20 37 -5 49 62 49 l62 0 -6
47 c-9 79 -80 111 -131 60z m88 -33 c14 -36 7 -44 -39 -44 -49 0 -53 5 -29 38
18 25 59 29 68 6z"/>
<path d="M3122 1524 c-12 -8 -22 -10 -22 -5 0 6 -9 11 -20 11 -19 0 -20 -7
-20 -115 0 -108 1 -115 20 -115 17 0 19 8 22 88 l3 87 32 15 c18 8 33 23 33
33 0 21 -19 22 -48 1z"/>
<path d="M3216 1533 c-3 -4 -6 -57 -6 -120 0 -106 1 -113 20 -113 19 0 20 7
20 114 0 88 -3 115 -14 119 -8 3 -17 3 -20 0z"/>
<path d="M3372 1524 c-12 -8 -22 -10 -22 -5 0 6 -9 11 -20 11 -19 0 -20 -7
-20 -115 0 -108 1 -115 20 -115 18 0 20 7 20 88 0 91 8 112 42 112 28 0 38
-33 38 -119 0 -76 1 -81 21 -81 20 0 21 4 17 101 -3 92 -5 103 -27 120 -28 23
-40 24 -69 3z"/>
<path d="M3551 1523 c-44 -36 -47 -179 -5 -210 22 -16 66 -17 82 -1 9 9 12 6
12 -14 0 -28 -23 -58 -43 -58 -7 0 -23 7 -35 16 -20 14 -23 14 -29 -2 -17 -45
81 -60 122 -19 24 23 25 29 25 160 l0 135 -27 0 c-16 -1 -39 2 -53 5 -18 5
-33 1 -49 -12z m77 -35 c7 -7 12 -39 12 -75 0 -58 -2 -64 -25 -75 -40 -18 -55
3 -55 76 0 63 11 86 40 86 9 0 21 -5 28 -12z"/>
<path d="M4286 1533 c-3 -3 -6 -57 -6 -120 0 -94 3 -113 15 -113 8 0 16 8 17
18 0 9 2 22 3 27 2 6 3 39 4 73 1 61 2 64 31 75 18 7 30 19 30 29 0 20 -17 23
-39 9 -9 -6 -22 -6 -32 -1 -9 5 -19 6 -23 3z"/>
<path d="M4434 1515 c-25 -25 -25 -45 -1 -45 7 0 21 9 30 21 16 19 20 19 40 6
12 -8 23 -23 25 -34 3 -17 -4 -21 -38 -26 -23 -3 -50 -13 -61 -23 -23 -21 -25
-76 -3 -98 19 -19 65 -21 83 -3 11 10 14 10 18 0 3 -7 13 -13 24 -13 19 0 19
6 14 103 -5 87 -9 105 -26 120 -31 25 -75 22 -105 -8z m96 -129 c0 -25 -32
-56 -57 -56 -7 0 -17 8 -22 18 -15 28 13 62 50 62 24 0 29 -4 29 -24z"/>
<path d="M4859 1511 c-25 -26 -29 -37 -29 -86 0 -59 19 -109 45 -119 34 -13
82 -6 100 14 27 30 6 48 -29 25 -24 -16 -28 -16 -51 -1 -16 10 -25 26 -25 41
0 24 2 25 65 25 71 0 72 1 55 62 -20 70 -81 88 -131 39z m90 -33 c12 -32 6
-38 -40 -38 -31 0 -39 4 -39 18 0 44 64 59 79 20z"/>
<path d="M5580 1531 c-8 -5 -27 -7 -42 -4 l-28 6 0 -117 c0 -109 1 -116 20
-116 17 0 20 8 22 91 2 75 6 94 21 103 12 8 22 8 35 0 14 -9 18 -28 20 -103 3
-84 4 -91 23 -91 20 0 21 5 17 105 -1 57 -7 108 -13 114 -16 15 -59 22 -75 12z"/>
<path d="M6180 1527 c-18 -9 -26 -22 -28 -45 -4 -40 10 -59 59 -79 41 -16 55
-38 38 -59 -16 -20 -46 -17 -66 6 -21 24 -43 26 -43 5 0 -28 38 -55 78 -55 45
0 58 8 70 40 15 39 -3 68 -51 89 -47 20 -63 41 -44 60 16 16 42 14 57 -4 24
-30 53 -11 32 21 -9 14 -47 34 -64 34 -7 0 -24 -6 -38 -13z"/>
<path d="M6542 1524 c-12 -8 -22 -10 -22 -5 0 6 -9 11 -20 11 -20 0 -21 -5
-18 -112 3 -98 5 -113 21 -116 15 -3 17 6 17 75 0 84 11 112 45 117 12 2 21
12 23 24 4 26 -14 29 -46 6z"/>
<path d="M6618 1535 c-3 -3 10 -57 29 -120 37 -122 38 -163 3 -172 -11 -3 -20
-12 -20 -19 0 -19 44 -18 60 1 19 23 99 304 89 311 -19 12 -36 -18 -54 -91
-10 -42 -20 -73 -24 -70 -3 4 -15 41 -26 83 -13 50 -25 78 -35 80 -9 1 -19 0
-22 -3z"/>
<path d="M7445 1516 c-44 -44 -46 -147 -4 -192 28 -30 87 -32 120 -5 22 18 23
20 6 27 -10 3 -23 2 -30 -5 -19 -19 -56 -12 -73 14 -27 41 -14 53 55 48 l61
-5 0 36 c0 47 -17 81 -47 95 -37 17 -62 13 -88 -13z m83 -28 c7 -7 12 -20 12
-30 0 -15 -8 -18 -45 -18 -46 0 -53 7 -35 41 12 21 50 25 68 7z"/>
<path d="M7692 1524 c-12 -8 -22 -10 -22 -5 0 6 -9 11 -20 11 -19 0 -20 -7
-20 -115 0 -108 1 -115 20 -115 17 0 19 8 22 88 l3 87 32 15 c18 8 32 21 30
29 -3 21 -20 23 -45 5z"/>
<path d="M7767 1533 c-2 -5 10 -57 28 -118 27 -91 36 -111 53 -113 17 -3 23 4
31 35 6 21 22 73 35 116 21 67 22 79 9 84 -22 8 -29 -4 -48 -87 -10 -41 -21
-78 -24 -83 -4 -4 -15 28 -25 70 -10 43 -23 84 -28 91 -12 14 -25 16 -31 5z"/>
<path d="M7985 1532 c-6 -4 -9 -52 -7 -119 3 -87 6 -113 17 -113 18 0 20 16
17 136 -3 101 -6 112 -27 96z"/>
<path d="M8110 1527 c-47 -24 -63 -140 -28 -196 33 -53 117 -47 137 10 8 25 7
29 -7 29 -10 0 -23 -9 -30 -20 -14 -23 -44 -26 -60 -7 -18 22 -24 84 -12 121
9 28 17 36 36 36 13 0 29 -9 36 -20 7 -11 20 -20 30 -20 26 0 4 54 -28 69 -32
14 -43 14 -74 -2z"/>
<path d="M8308 1525 c-42 -23 -58 -94 -37 -168 18 -67 106 -84 151 -30 17 21
-11 37 -33 17 -23 -21 -56 -17 -73 8 -29 41 -21 48 49 48 l65 0 0 35 c0 46
-17 80 -47 94 -31 14 -42 13 -75 -4z m70 -37 c24 -24 14 -46 -25 -51 -49 -6
-60 5 -39 37 18 28 45 33 64 14z"/>
<path d="M8520 1533 c-46 -16 -54 -81 -14 -112 15 -12 32 -21 39 -21 6 0 20
-9 30 -20 15 -16 15 -22 5 -35 -18 -21 -46 -19 -69 6 -25 27 -46 17 -30 -14
16 -30 28 -37 69 -37 43 0 56 8 68 40 15 39 -3 68 -51 89 -44 19 -58 35 -50
59 6 17 48 15 63 -3 15 -18 40 -20 40 -2 -1 38 -56 66 -100 50z"/>
<path d="M5940 1436 c0 -52 3 -102 6 -111 11 -28 51 -37 85 -20 16 9 29 11 29
5 0 -5 9 -10 20 -10 20 0 21 5 16 113 -2 61 -5 113 -5 115 -1 1 -8 2 -16 2
-12 0 -15 -16 -15 -84 0 -92 -13 -120 -54 -114 -20 3 -21 10 -24 101 -2 89 -4
97 -22 97 -18 0 -20 -7 -20 -94z"/>
<path d="M3842 1508 c-7 -7 -12 -27 -12 -45 0 -24 7 -37 26 -50 24 -15 29 -15
53 -2 29 16 41 70 20 95 -14 17 -70 19 -87 2z"/>
<path d="M5152 1508 c-7 -7 -12 -27 -12 -45 0 -24 7 -37 26 -50 24 -15 29 -15
53 -2 29 16 39 56 21 89 -12 23 -68 28 -88 8z"/>
<path d="M6936 1498 c-9 -12 -16 -28 -16 -36 0 -18 46 -62 65 -62 23 0 55 37
55 63 0 53 -75 77 -104 35z"/>
</g>
</svg>
